<mxfile host="65bd71144e">
    <diagram id="HIP3nbAZw_EuaXWnEj3U" name="Page-1">
        <mxGraphModel dx="532" dy="346" grid="1" gridSize="10" guides="1" tooltips="1" connect="1" arrows="1" fold="1" page="1" pageScale="1" pageWidth="850" pageHeight="1100" math="0" shadow="0">
            <root>
                <mxCell id="0"/>
                <mxCell id="1" parent="0"/>
                <mxCell id="8" value="http://ics2o.mths.ca" style="swimlane;whiteSpace=wrap;html=1;" parent="1" vertex="1">
                    <mxGeometry x="45" y="190" width="760" height="510" as="geometry"/>
                </mxCell>
                <mxCell id="9" value="&lt;h1 style=&quot;margin-top: 0px; line-height: 270%;&quot;&gt;&lt;font style=&quot;font-size: 30px;&quot;&gt;Cookie Clicker PWA&lt;/font&gt;&lt;/h1&gt;" style="text;html=1;whiteSpace=wrap;overflow=hidden;rounded=0;" parent="8" vertex="1">
                    <mxGeometry x="225.23" y="30" width="310" height="70" as="geometry"/>
                </mxCell>
                <mxCell id="10" value="&lt;div&gt;&lt;span style=&quot;font-size: 26px;&quot;&gt;Click The cookie&lt;/span&gt;&lt;/div&gt;" style="text;html=1;align=left;verticalAlign=middle;whiteSpace=wrap;rounded=0;" parent="8" vertex="1">
                    <mxGeometry x="270" y="90" width="260" height="47.5" as="geometry"/>
                </mxCell>
                <mxCell id="12" value="&lt;div&gt;&lt;span style=&quot;font-size: 26px;&quot;&gt;Amount of Cookies: 15&lt;/span&gt;&lt;/div&gt;" style="text;html=1;align=left;verticalAlign=middle;whiteSpace=wrap;rounded=0;" parent="8" vertex="1">
                    <mxGeometry x="240" y="362.5" width="260" height="47.5" as="geometry"/>
                </mxCell>
                <mxCell id="13" value="" style="shape=image;verticalLabelPosition=bottom;labelBackgroundColor=default;verticalAlign=top;aspect=fixed;imageAspect=0;image=data:image/png,iVBORw0KGgoAAAANSUhEUgAAAJcAAACUCAYAAACeC7vXAAAAAXNSR0IArs4c6QAAIABJREFUeF7svQeYZHWZNX5uvpWruqo655nuycAwwJBBgoCuJAVBQRHFgJhRdxddddVdVnfNAcyYUFxJIqCiJAkzzDCxJ/RMh+lYOdfN4f+9v5px3V3/3/d8HzMC+0zx9NNDT/ed6nvPfcN5z3suh6Ovo2fgCJ0B7ggd9+hhj54BHAXXURAcsTNwFFxH7NQePfBRcB3FwBE7A0fBdcRO7dEDHwXXUQwcsTNwFFxH7NQePfBRcB3FwBE7A0fBdcRO7dEDHwXXUQwcsTNwFFxH7NQePfBRcB3FwBE7A0fBdcRO7dEDHwXXUQwcsTNwFFxH7NQePfBRcB3FwBE7A//jweX7vlDd8cfo2OKUlJkuCq7X5CU1JEXjXUIqFhCDwZCgCAIPGZBlhZMBSEHVlVTJVKSgjQRfMxb1mNrVXUPF98FxnFbLBNgVCag+x9sCZzki/a8v8XZADhmIBGzA9YCqDSy1OY7zjtgVfAkf+H8kuHzfF7c+dm94fnJr289//ot0NCSlY+FQKhoOtQmKFHVsJ2gYRsC2LbVSagR4QRBEkec4jhc8zuc5cILPweM5zvN9zi2XyvLQkqUNWVFsWVDtWr0utbWlm0PDg5XpA+NBz/PgwfV8x/Mcz3U4jrMFTtQ4USyfccY5Y50d3bVU90A1oKpVtJkGx622XsKYOGxv7X8UuHx/n4KCK//8zm8N/+GhB4ZGhnrWXPI3F14ZDsqxeCQYDwTlIAQIjqmj0WhYhmk5qhILQhAoIMHzXNd2XNe2HcKI7wN+ItamlMoVUxBkvlKpeo2G5s3MLdjju/cKl1x+qZVuj0Z8uI7jOK6uG5bR1E3TNG0OvA1RNHft3Du/detYMZOtFgeGR3auWX38RP+S0dLIylX1jjUjWY7rbB62q/kSO9D/CHDtfPqutqAaiow9/3THz+74zqmpVHDtW6+5+ozVy5cM6Y0iTK2KRrWAZqMEy9ABzoUsiBBkGZwQAcfLDFzgPPgeB58DBI4HJ4gwdROSrMI0bTi2B1UNIVco4XvfvgOf+ezHIUoueM4DRS/LsmCaFvs+nhfBCzI4SBCkoBOOJDjD8ivPPrt575NPPV3lOXnf0Ipjn3vrez7weGDJYJnj2hsvMWy84LfzsgWX7/vc1q2PxXY8ck/vww/+fElHsm3NVa+97LxUW2jU1uuxREQOyoKDSn4BAkwInAMeNjjfA9iffXgQoJk8wEnsRPq+zz54nocoSBAECZpmINmWRrXSgOcBoXAc27Ztx623PobPfPpCKIoLgXNbP0/ApHgHHjwngRMlyEoIhuHBtn0ogTBi8RQEXsZCNledmsvPfu/uXy+sP/3cf3/7B97/TN8xayaBLp3jODrIy/71sgTXXXfdJYxve6z7N7/84fA5pyx/1RUXX3D5qhWjS0ytzhWzi9i7exsMrYyVy4bB+xY41wIcA56nEwTAcy5EnjAgQ5DC8CEzUDiOA9d1WRRiAOF5uA4HVQ3A0B34PodYtA13330vNmzI4o1Xn4ihwTTgmeznOYp2HAcOAvtelwo3jwMvSLBMF5btIxCOIB5rg+O4yFWbCKT6sXt6fsdjT27cE2prf+LG995yf3fvmiLX+fJPly8rcPn+XcJ3P/lM7P5H/l0984xTLn7j61/zgc6gt9QsZ/ns4gIa9Sp4uHAdA5ZRh+ea6G5PHQRTC1QcPPgUvTyHXXzXkxgYCBj0dddtpbjWi2dpzTBM9pkAk2xrx+23fxvdXb044YQ1CMkWPNeA57jgBB6iKILjBAZShx0LcOFDEgMMrIZpwTAMKEoA4VgK09kKYqle+EIQT23evvPpzbvHXn35Nd+9+toPPcV1d2sv5/D1sgHXo5/4hPiFx78dP37VspPedv11/9iWCC1fnNyt8tWM4DersG0bsiIiFAgykFRrZVQqJfT0dMGxTNgWRS4HhzKO7zoseoicAkmSWI3k+y77LAgCA5htO4BPgKHaSWR1l9a04Lo+0RYIyjx8uwxZ9iDxAkzHhqZpsF2HgUxRlFZEE3h2TAIXRTb6Gr0X1+fhugpcKMgU61BjHbD4UPEX9z+y0w0kHvrUZ750dzreP8sNDRkvR5C9LMD1ieuuU8vW7r5rXvvqf169ZvSscmlBzGZm4loxg96AhABHBTTFLB+W6cBybAYA1/dhmiaaRgOVUhnVahW63mrOVFmELKmolcoIBEKQZRmCQClQRTweRyyWYOBQ5QCamo5ivoJcvgi9aUCSFaST7WhrC8NuZMBzBFpKgR5cnyJjC1A8D0SiYQYsUWz9P1VTnk/AtlhUczQfbakuFGsasmUdcqQDJQPatonMrmzN/P0N7/3Iz7p6+yeTIyfXXm4Ae8mD6/qLl0VOWbf+Va+68PQPy4I1tHvn5raAKmBosBuc3kB9ZhoqTxdPhM9x0Cwb1ZqGUqWKpmYwoKlqEGooyAAkcmDfS39WJBmeZcN3PdTrdSxm5lEsFllKI2BRRPMdH8FwFG2xOKuXZEGGTenOps7SRCqusHqOQMXqLUEEx6MFNJfeS7nVIIg8JEmEKvOQ5BbYRPCA7rDGweVl1A0PDVuALUQwV2y42/fNTOyeym19+wc/8oW1J5+3NzG0tvJyAthLGlxvu3h1xyvPO+NNZ59ywvWeW+tcmB6P9/e2IznUC+h1+OUCcvsnwPsea//rmoZqXUdTN2BT5wcea45bi1AwgmgiDgSU1rUxdLi6Dtd2WPSiENJs1FAul6FpDRZpVEVhIOzo6gILObwEEF1BPIVD4LLhOQbMRgm+ZxOF2uo2+VZKJYDSB+DBcWwWQW1TZ3UgayoEgHrUhKLCNk0IchC8Gka1YSBX1eFJEQQTnXh8w475A7nKM2ddcMntl1z31i1cdEXx5QKwlyS4Hn30UfGma18R/ca/ffyLx64YOkeCldTrhUA0KENKt8FZmEFmfh6d6QRquRy7OKVSCQu5HOpNE7F4G0aWLUPv4DCQSACmATSaLCVS/eXYJvtMqZMiE0cRhGtREOFgAMF4BFAUVvQzYGka9FodjYbGartDnSTVb8RxCdR5cgQqH7ZDYKL02Dq1ArhWcW/bsOnftU14NqVED7znQOE9tKcT7Ni1ehOxZJrKf2RKddhsJhVGrmplx+fyO7uHVv/4kkvf8FQ0PvKyqMNecuB68MGvKB98/XvDP/rZv3xr+ZLuk81GId0oZ6TOtgSITHcLedi6Dq3RxOTEPiTjMeQLWRTyJfCSiN7+AQwNL0WooxMIBtCcnYXWbKBeLTICVeA5yCKRpIe6QZlNAV2HqAYXsiyxtOWYBupanWAHURSgKCpLlSIvsBRom1Q3tRoEXhQgCjJcX4DjtAAGnzpQAbZNPBgV9BKLsD5FNduCa1FdSNGzga7OFMqlIrtBOjs7IQgiiqUaPE5GpWmi0nRhIKgX6u5+Xw7/9tyLLn1g+bpzdqJrW5njrmyRbC/B10sOXGeuDvR9/auf/3Y8wq9pT6jdZq0IW6uhrSMFChH5HWOoFEqIBEMwLQNzi3MwLB2yrKKvvx+Do8uAWAyoVJDPZ1i04Fy7lY7cFufle8R7OXA8DqIcYXwXXXhi6AlcqioDvsuOS9SFe7CzpAjE6E2eYyBjRTtHtR4P3xPg058hwvEE2BalaiAcjsOnaGa5LUBRB+r54Kjo5x2IqgvDrEPwPSgSB9ey4FgGgmoA0VgbZubzKNVN6I4IJdKBxaI598SGrTPRZNcjF7/xLfd1rj9tcuglWou9pMB18Wl93R94/w1fXjHac5bKW+lyfga9HUmIiRjq4/uxb/cehJUAXNvD3MwMGo0aQtEQBocHMbp8GdAWZymwWSzS7JAV1M16HSKBgfgtj4BlQIALlYpqOQDLEsDxEuvgLMtkoDrU2flwWZlFbNeh1yEWXyBKgf5SEKAzgpQqKRWCGILjSGhoRFuY2L5tF0ul1ABQ2o1Fo+jq6ER3Rzdi8QBct4ZcdhrpZBTxsIpSbhHBgIxIQMXk9AEkku1o6h4sX0XD5LB/MoPJ6UVbM705S4ltTo4cd++Z51+y4ewzz198qRGvLxlwvfuyc5OXvu6sT55wzPCV9fJsOh1XOFXwWS1UXVhkFMD0xDSqpRoruOH7WLVqBbqGBgCFBxwd1VwG0XAIk5OTDAvU6ouCCgJCtVxBV1cHRMlHo1lBPBpANptFQI0yHosuPKVF36P06B2EUwsQHH2dcVMtmqF1cB8uB+iui0S6CwsLFcQS/di7Zx6PPvEc5hZL6OkdQF9fH0LRMAO6bjRRKddwYPIAI23XLF+KM09ahXiYQ7W0CIG30dOZQCE/j1KpgOGlo9ANF9Mzi0in+6AbHh5/7I8IKGEsGxnFbLZazzSwa6FqPL/q2BN+f/3bbnwco+uKL5Xx0UsCXF95z3sUzZu78KYb3/SlfXs39q4c6RJllQO0GsrZHPKLGdiGh4UF4pREDAwMoC0ZRxsBq1pmBGmtXkayvQ1bNj+HRLyNAast0QHTcKFpFgZ6+9DQG9i9ZxvS7XGk0jHMzx5ARA0jFoshk8lg8+bnGGiPO+4Y9Hb3oKk1WrIsxuq3QEUnjCgHeh+ewMHwqZEMY+pAEbff9jCi8QhOOf0C+LwC3XAwPTOF/RN7MT1bRTQKDA/3kTADc3MLqBUsHDsSwgVnn4xVKwagaTn4ThPJZAieZyOTy0FSo2hPd6FaMTC+dxIWNSzRKEKyCl9QMJ2peVXLzwSi6f2Pbtj69O3f/cVt6tr2DMeNUFv6or5eEuB67fqhYz71iZtv7ekMn6prC7GOtiD4eBCN/eNYnJ3DzNQ0LMNi6bCjowPHHrsGciQMNljRdIyNjWHZymVYXJzH/GIGff2D4DkFVapVNA/33Xs/cos1DAymcMmlF2GgvwPj+8fQ05FCtZhHV2c7CoUCNm3axJjzdeuOR2dHB/L5LKLRKPsa02x5HquVWGr0OLicAMOXsHX7PszOVdCWGoLAJ7Bt5wR2jo0jGqcZogXHNyGRrIdvkbrE5tP4h3MdzE3VMdwHXHrxWTjhuBFo9SxxJVADIivwaR4Zb0sjs1BGJlNAKp5CUA3CMUwooTBMT0TFcPDoU8/Vjj/tFdvuuv/3z7/jI//wzQuvf98Ux3Evqm7sRQfX/Xfc2j+24fFr//ajN/395o2PBdetXw2/mYfTrGF6Yj+qxRJmJqfg2T66u7uxZOkQOvq64GlNzMxMsy4sFoujUCrB8XxEY0lk8hWMLj8W3/jG97Dl+Sm86qLzGUn6ne89i/5u4MM3vxbDQ12wjRocvYJQsJUWDUNjwKGinud8JqEh1p7JcQ6+DqVHCo2OL6JuyijVHXzh3x7Am6+7HFu37MPWrePwICESizNgksQnEgnAsS1US2UEg0FEw1H2nrRmDfMLDk5bF8Jb3vxadLUpyGanIPIuItEQytUmduzcDd8T0d83DJFX4NguJI6HYbUAptkeNIcn4rVZMrx99/7uqc1f+9aPbj3+4msmX0wV7IsKLr+4L/qhm665+Ma3Xvk+RfbXek5N6OtOgvM07N62FVqtisJintEEsUgUK5eNItGRBFwDzXqJkZ6cK0IOBGHZHqRAmLXuiWQf7nvgUczOl7F0yWo89ODvUKvV0N2exIHpIoYGeFz/lqsQlB20xyQ4Vp3VcYFAaxao6U1GMQQCAWRyi+zviK2nD1bvHay5HE/C9j0ZJJKD+P73f44LL3otNm7chUrFguuJLI23t6eg6TXIogDPsWGZOkvDFL1mFxYRDEWgaxV0pVWceeoxOGntMCIqdZoNSDIHy3Lw3KYtMC0Ow8MjCAVjLOXD9tBo1CGIPuRgAFXNwUK5AS6YrM8WG/t/98zWx2/7yd1fWHrSBbMvVm58UcG157n7lt33vS999G1vvvSySjkTH17Sywrzual9sA0Ti/OzmJuaxdo1x6KzPYUIdYOegfnZCQiii0Q0BlPzsLBYYIRp3XBR1XzMLNTw81/+BqPLT8DY2BTm53KwDBMjwwPYv3cSzSZw0ztPx+nrV0GwCwiordENpTAq6omZ54XWrNDx7FaNdXDo3MIVpUWKXDLCsUH88cltGNs1zUCVzTXgODLAyZCUAFNAELURDqosMtZrNUiCiICssEH3YqGMaERh4Fo12oljl3UiHScgOyyi0k1B9Mbk1BzqTQODA0sRDoRRq9QhiUTlcawxCac6sFCooWoJsKRobcP2vbuUZM9Pv/zl7/yE61tdejEA9qKBa8fj9/bt2v7U65Z2yTe0x/gV6VQcisrDrFewd/cuRIMhjO/Zh+xcBm+46moIqgyrVoRjNzE3PwFJdpFKJqHVXSSTXRgbn0S6exAVXcAn/+k2rD/1fGzZNonJ6TzWHnsSsguLyGdmEQ3xqBYrWDIYxA3XvxZRsYpkTISsSCwNuqRRUBQGqmaziWBQZQw7zSiJNG3p5YmEJeVqAJapIpfXmLrh7rsfxIE5B/0D3ZCUKHKFCmSV6AYXuk5aMrAITFGxWavDsC2YtoNGvYnjj+nEOacfg5hqQEQdPR0xxKMq+zlZDSJfqmFxIc+I2SAN2kUFEg1K7QY6OtKYWyygbgOOGMWOyTlwoVThqS17xq5794c/9pq33/Isx3HOXxtgf3Vw+b7PV2c3D23buPHCjY//+qqb3nrxqZ5R4onbgW/juY3Psk5t66YtaNaaKBequOHGdwO6jrnZ/YhFRTT1EmyrDp7j0JXux/6JOXQPLMFsrooHfvssgm19eGbDBHIlG4qahucIgOOiVs4hGvRRr+QZQ//ed70ax44mIKLJaiuKTh7XmgtyAsdS4MLCHJPQMODR10WBKSeobpIlusgxtKcGMDefw9ieA7jz57+H5QLtnT0o13WIUhhqMAhDb0l1QqEAk+U0Gw2Ew0E0mw0s5Eo479QBnHfmcdDL00jFRSxb0o1yMYuhoUHs2bcPnd39EEUFTzz+R6YrW7l8BYxmFW2RAA5MTiEYTaCtawC7JuZRd3g0PQXjc/n5A0Xt4W9+745PJ1aee+B/NLj82dmAIeTbv/7Ff766mFm8bPlQ56pTjh0MJSMS2vr7ML5lExRRwNzMPBoNHb//zaN41ztuxEBfP3hZglkrYM/uzejvb4dtV1kk4T3SqIchh2LIlDTc+oU7sPyYk7Bh0xR8IQbXCcJ2BcB24Zh1yLyFSnEeQRl47WvW46TjOhFWXYiKTAsasCyDkZ7EztPnRDKOwcFBhOJxNOs1Fs2oFhNlCZZho15sgudluK7AuK0Nm8bw/PZ9jPAMxzqh0WAAElO0EpMvygoDra5raNZK0OpVjA634YQ1wxjojiIZ8dCZUhFSOTQbFRZFQ+EwiNjXTAuqJGPHjh2Y2H8AF51/BnjTAufzKFYb4OQgQm2d2LB1N4RQEmXdd3YeyO1ef84Ft1737s88wCWTf1XZzl8tcvm5neGx7Rv7f3rHd68ZXdJ/xpuuvfq0/WObuWZ+Fs1KDsPDgywF0Ml85pkN0Go6pqZm0dc9gCtf93pUSgWmmxIFE5Jkw/M0dueXC3XYDs9UBXumFvGFr/0OfUtSmJnXEG8bgO0G0GxY8G0HZpNmhTp8t4pUTMEF556A4V4ZhpZnFzwSiYBY+abeAhClm6Elw+CDKmBbyOfzrMOj7+VIP2ZaSMYTKGbLTDURiCaxd/8sfv3bJzA+WYcSCsHnQ6w2A2gZRGGDcN3U2XFIURENuDhmWS9WjQ6gO6UgFZfRFhWgkGTCd2FaFmskGrrB/l1ZFplEe3L/PjZjTYSiCMgBdmyPF6HbPAoNE7PZMnw1Bt0PFR/ZsHXLLx56/IbA0Nrpv2b0+quAa+fOR8OlPduGf/CNL9507RsvO2nFyNCoyDmBRFiBVSlh1/at8DgXuVyGUQvzc4tYs5q4ph58/au3Ibto4Lo3XYwTTzgOc7PjGBruRL2eRyGfRW9nH2oNC4Ks4vkd4/j+j55kWpZak1LTEMplG9WKxmaBtt6EwOmIRxV0tIdx3OpBHLOiHZZFMimaK8qQJAGhcJDRHrHeLpaOSXVRqbWiFouWpJRglb0D4nqZjouX4HIiSjUTeybm8cymXRjbW0dXTyeaug/DpjmSxBQTDa0J17MQEF10xzkcs3wAPe1xJKISejriTBlEs1BKvaZtsffVNHQkEjHkF+fRkU7ANJqMonF1H6FAFLFEHB4nolCqIxhL4alN2xBOdqHYBPbOFKYuvOKaT1325pvv+WtGryMOrqmpR9Xn7nto4PFH7n/7O2+45qyhntSaUDos29k5bHv+eQx0dEBr1FnEOjA7zeRSkhTA2uNOAB9OojA9xwD22z8UcfNNJ+Oss9YjsziF3p4U1ICEcrGKWlVDMBLB7vFpPPLo05ia85ErtFQzRLDXa0AiqoKDA9oI6u5qQyoZQFdnBCNL0lgy3I32VBKO50KWRASIOLUN5HI5xlNRRLW9VqFPF/rQfJHG1Eating0DNsHSrUGXMiM2Ny+axpPP7uTFfiWA6iB1iCaajeKgFTfh1XgvNMGMNLfDkn0EQ1JGB0ZpPUO1iWGohGowRDTkZHyo7enE/MH9iOokJKWhtw2FhdKtOrN3lsgFGEDdBc8Nu/YA06NYKGgIZjuqzS9wMPv+/vPfFxdum7/Xyt6HVFw+Zs2SZ//+ef7p8bGLv+Xz/7d2wOiNSR6DcHQClicnUKtVEQkEAXvA+FYlKWLcDSCSCQKMZZEI1eBwAewMDOPzEIW37r9l1BE4Kb3/A26OuPQSdjHiWg2dERiURRLFUzPZTC2ZwIzMzXU6kzAgEadRkERyCKHQIBHX28aiXgQ8YSCdetWIJ6IsCiULxbZHDESj8E0dTYSSsSif4pWlCopShHLTgBTCIiCxGaGrudBUFTG2hcrGjK5Oso1B08/uQ3ZXBPlCphKgmonerV3AEO9bTjpmGEkYhJMXUcsEsKKFSvgcUAuW4QSDMHjSaWhIpOZQzweREB0EBQ91GsZtntpOhLqNQOVSgXJZBKDA8PYNzGJakNnunxStnLBBDZs27//5k/c+vHRk89+mEsM/VUUrUcUXP/ykesjWzc8cfZPf/jNb1YyU22iWw3wXgOT41tw7y/vxxWXXoiRJSuwd88+VkCnOlLo7O5iRa/tciydzc5kEFAj6O3qRq1axg++cxsmJx3cdOPZTL3Q2d7FOCde5EDTP0o7i9kiMou0oKGhXKLOzISiBNnoJhJV2GwxFBTR0Z3EypOOQ3lhFpnFeRZVeJ5jNU4wpLIazNKJZvgPyRQV+ZQaJZEkywpsw2ZRAwIYXUFaLouiZcNDtWrD0AQcmMpg3/g0crkyXAdItclYsXIJVowOwNaKEAQHpqZDDYbR0dWNpm6hUGpAUELYuXsfVq1ZjSXD/SgX5hELAfEAUC3OtXT/wTbUGzrmZmYRj0Sx5phV7HwKUgD7p+fgSyFs2TWJ9MCKxv5s7dnPf+N775etxH5u5MjPHo8ouC5av7T3q5/7xB1tEe64RBBtzz31MHpSAWi1LO67+36cefrxGOgZxczcPEJ0165eAYr5jVIZxXINhuEjGIjBtYFIMIyFuTm0J2MY37sT1XIWZ551Bor5IgOBptWZyI9eruOj2TRgWxwM3YVlevBcDo5rIR6PMALWtBoYXjoEl/dRqdeYtj6VSrENIooCerMBURLAkfaKyZtdBiqKWIyxF2TwnIBCvob2zg4mWM0Xc3B8D4l4mqkZ5maK8B0Fvi3CtTim5eJ80sw7rGCXJUCg5oQ0ZrQU53Eo0Q21kEfdAORAFE88sweDg0nc/MH3ILM4Ac6qQuWa4Nw6gpEgDGoWBBnlUgm2oaO3s7PVANR1zGcLyFc0VEyg4SiYKxvZaOeSB9/94U/eml6xfvxIp8cjBq4rrlgpv+7kCz905RWvumV+13Mhwa1D4jRM7t2GdcetQKmQZUz4xOQCRFlGT083Ur3tbJBcqpTZLmEoRFQCUCqUEQ5FoUgSVEXAzNQk0u1tTMhnmTRz7EK5lGNclW40WCQhBagoKJD5EHxOgme7rG4icFVrRWSysxhdPoKmaTEei5h0SoUkBpRkkaVqksmwWaNErVuL/6Jini1uuIBhWAiH29Bs6nB9B8GQzH4n3bSpuYTgK6hXTPiOAEt3YGg66/SIeQ+oEkTeQZhpumxIcpDxYps3j2HHnknYngI10ob9k3PYdwC47UvvgsybUDgNnlkC79UZfVI2XCRT7UwqlJmdZxvlJ51wIsbH9zFVRqbUYJ2jJYSRrVrYP1+cXnPyWXe+/0Mfuz0wfPwR5b6OCLg23X679JW7vjF0x+3//Ihbmu2sLOyTfKME32rAdiwWIXxBwL6paeyemMDa44/H0qXDsIwmSoUMu5MljsogEutxEDmeRZO2dAq+4yKTz7FjkA7Ld1tLF2wZFjZ8EIt+kEn3BcDj2TBbb5rQdB2SzDM9F13cvtWrMbdr95/dwH9hi54jJQRrDf/CjU6mAAeXanlaJ/vzQ9EKEMcASDcIRV+4pEBtLc5SvSRKHGyngY7uDuTyNdQ1G5KUwMO/ewK/eWSKyf+p6yUg33D9hRgd6kSjnEE8LMBolphQsmk5kEiCLYloVmssOpIkSZWC2DM+wZQhU/N5zCwWoUTStPhhTmWK4+vWn/7Ft/3Dp+85kvXXEQHXjVecHb7klWe+7/xTV93slafjhQO7wJt1BFSR1UQOOJQbBiZmZ9HR14OhpUOIp5KwqiVUClkmS5YFnw169WadyV4IXIIsQaB23iPfhQByuRLSyd7WKIZAxdPmIhXbLjyflk9J266w9CiKtPjKwzQN8IKHcEhlM79sptBCxP+vPcMhUP1lcNEQma14tIReB4/VMjRhoKd8Sd/jc+B9kS2D8EzRJcDnabdSY51kNl+Dz6mIxHrw7HPb8cADT6JaBWgfhDD71utegeUjvbC1CuIREUa9DJVKCFqN42gvQGQbSabW2p8lB4NypY5602YKjYrmsC7WgopsqV4PxpIblq879R8v+bvP/fFIiQsPO7gbVX1nAAAgAElEQVTIIOTU1bHEY/ff9aBTOjBq5CcSjewUFM5EWJVRqdZQqFSh2z4028GJp57MujO6RLV8HtVKAQINj0nq4josBRG4qDWvNzTGUouSjI6OLjbnM3U6mR44vmUwQn+m/3yPrVZA5EMol2uIx1KMGKUt7Eg0iHBEZaOd/4ap//aF/wqq//z/hzb/acvnIJ5aitaD2z+tyCuC5wXW2fIeKV45tivpwYXhaOB4EZrhQlZjiMS7sJCtYOPGHZiZmWUDd9L7v/rCc9DflYBtVBFUfZj1MkuLFm0dEYXmA7LAswaDivtqqQIlEIHniwgnOmC5IjLFBqpkigIRhXJj9kCpce/ffu6L/7by3NcekfR42MH16KN3hX/y9X9d++XPfOR2s3hgeWFqGxeGgYDkwdIamM8soqFbSHf2oKOnD4nODqb+NJoNVIoFGHoT8sEFCM93YenmwYVXAYLYWki1TBsiWW2R3EQgYFEsdOCTBdLBjWcCl+9J8Fz64BAKxtkdrel1hMI0guGRzc2zRYj/lPL+L8HVipotIpVFjENiQvaZ+1NDQMASSVlx0AmHUh3VaXWjCVFVISsReJ4M25NYBGs2bRSLZbYpbjTqWLZ0ANEAbSVVEJJ5NsoSZRGuJDOjE1pdU2lzSRAwPXkA+Uye6ckCwTg4MQTD5jGfraBMhLMaRl23jF2z2Z3dK0649VM/uOeeI6H7Ouzg+tVdX+iZHd/ylstfecr1vJ4fKkyNoT0qgXM0FPNZNDQDkWgcPQNDCPT0AjQGMQxo9Qbji+g2VCiFoeWpQNvS1PnUGk32s4FgBCkqYDkJjtsAvCp4joxCKGq1PBjoonquwAR2tsWjo72HFdi0zk91ju/bMEwNCpFmdJVbdPt/rqn+jyBr/QyBq+U/0WLtPfAUN/+kVqVmgKLKnzZ+SBbNkqPHNPgNywAnKVCVMDTdQbFCKogoVCXEyGHiArVGDZGQjLDEISj7oP1NzjPZEN0gixRy4dFam0rRUJjtCxC4qCZVAlFUGyYcT2aCwmLNgGZ64AUFdU6d+u2msXu/+cNffG7opFdkDnf3eNjB9cDPPrs6O73rH656zSsuqGcmonpxHmHRRb2Ug9aso72jC2naYhZbwrxapXSwUzP/VOxSGqEhLznLlEoVRKIJFqn2T0wzI5DOrl7wkgxJtBBSdXAcpRYXnNdapCDei6IWgYvkzl1dg6hVGmxVPxQmXVWDRTCaHdJ7+ovg+ot12H+vu/6kreeIV28Zx7V8ulqnlghQ6uRYc+K2fMHog8ZRhLqmR10s/aQI2+VhWz5kJcyY9nK5CsfQmcAQloGQKiAdDyOsioBjwvQcOKLCzgXRELTZHVJUVi7UK1W2fUTTAaJFKHqpoTizDJhdLDBxZTDdrz/43NizF17+xo+89WOf2/SSBpfvzwa+/fnPntsZ5T/xqrNPOCEztQswyqwILS3OIxBUsGL1MUA4jmo2y4a3vGsyxptOCO0ekjEaSVO8g8V4OJrC2K69mJqax3Obt6FQcNHdk8Dylatx9lkngvOzEDmdgYu2nykikDMNK0R8CbFIkl0wTaOT74AXaSRkEomBgCqz5db//vo/RbH/+AmP/i2utQDL9hfZEhvVVS0zOVprg+e2trddMp+jiseHQOGMpwWPFrjIuon2J2UpAIFXmAKVrJsUXoRp6Oz8SQLQlW5DgP7gmNBNA0I0DsN2IJGTKwc2TGcNDenEGhrK1QYCwRgsm2fpVpCCWMiW2NKtEO/ERNUdX2i4X/3qd7/748PtRXFYI5fvT8Q+8a63f+j6qy95fUJ1RquZA3CNCvRaCeV8Dul0GiOrj2F0wtTMLFzHYnUE3XXksaDIQcAXYZgOjZEhSioWMyXce99DEKUgVq1Zh1A4hi1bt2Pjxp3o7g7iA+99I0S+AYEnQze6aJSqWi0/gSyd7mLqU4okkUgIutWAKPMIhiTWgSqS0vrev/j634PMpz5OUJl5XMtLgqIXgesg0AhhnguewOVb4H0bgk+chAURlI59WARFsWW/RJQF29ImQRg4pjgliY1Wr2Fi7174jo3ezjQigQCrS3XHghSOo1yvspW6YEBlGn3T0FgjRJZPlXIVqXQXioUGcoUqovF2mLaHTLYIQwoj70bn7nv82c1PPLXlPcGlaw6rJPqwgkvPbBu67ooLvvmhG9+89pilPe3zU7sh+TbmDkwyb4Z1J57ExiPEy+RyBXiOiUgA7I5saCaikTZMTs1gYGgZa5+37RjHXb+4D6efcS4UNYJHH3sK+ybybC2MFqQnJqo4+UQV1151MTxXQ19fO0TOgtaoMs16z8gIsvsmYegmgpEokxk7vgE1KEM3WtKZWDiJUqHaIkYPWlYSqUljHupSiThlkeDg9s8heoFk0D4nQ410Mf2WptvI5ktoahYUNcS62p6eHnSkkggFFawaHUKtnEF24QDiERmmVmczTdPW4HMHazSqzfyD7oRUy/m00c3B1gzoVHNWK9DrDRad08kUKzHmi2WmiCDGQxLJCdGCbRiMAiEVB3WpVErougXHFVn3aFoek0yXTR5Vua3ywKObdnzt+z99x5rzL/9z0u8FZ8nDBi7f9+Xv/st7zzcKBz6xvD91XE9bQMrOT2K4twflcpHRACNnnoXa/il2ZxYrVcRCCjyrDEnw0dRtqIEwJCWCfLGBHWPj+PXDT+L8V16I557fgcmJeShqGGoghoamw9AMyKKPSkHHW99yJgZ605BlB6mEyhZLiYilO9hotmaDpBjQjCZLn0FSgBp1SLyEQq6CZCL1p46PVKKhUIhdLKahZ34QdJr+exSzfQU/vev3UOMdbMxUqjYxMDjSEu4RDSKKeG7TswgpIo5ZsQRnn3kCVo0OopibBeeSka/PxlC0HXRIaXGo8yQ2jPqEUCAAraFDr+tMf1/IFdnv1J5KY2BoCJG2NBqmjkqpCOGgKQpNGqhRofdPN5DZJFM6KuqpgxbZulqzYaBk+mgGOtxfP7l5/JZP/dsNZ17zrqdeMKL+7ACHD1z5PZEb3nzVB29571veaBRnRxqlBRj1ImrlEp5//nnW0bzhjdewLiWaaEOtWodna7C1EpKJKGoNnW3v+L7COLB33Phl3PLxt+HxJzdg7/4DyOdqCEcSiITjbKyhNzXWIS4sVHH+2cM4/5xTIYsGlgyn0T2Yhl8vYHpqgi1CMH8sRUXloFdWIKSiUq+yix8PtiERa8P+/fuZhqtULrAoRoAioLVW+1sfh0B2aL3M8hV8/85HsOLY0/HsM5uRK9UQS3QwTRWzhCB3QktjxiO8C5x39nK86Q2XYGF2PxJRBY1qDpGDUqBDFAoDF09Ff4vuDwdCKJeq0BokaSXKxm4V+pYDWQmgs78fgixAJv8vmSDps8hNbjqxWIR1yKZuQdcsossY/0fqjGbTRElzUVfa8Mdt++YuuPTqj1//jzf+9HB65B82cN39rX8andj29Mdufte1V/rNnDKxczMDz/z8PFuFqmsm/vD4JoyNAaedEcGll14OiXOx5rgVePy3D6K9ow/7p2cwuGQl/uFT38HVb7wYv3nkCcwtVNDe3sU6qEpNg2v5UBXyeHBQLuURVDjIgoU3XHUxhocSGB1OQhI0duHq9SKCEpm4yYyoLFVrDOSyqqJcLSEUDMK3PJSLJfzhD3/EJZdc1LqwB+eHdNczIxNGNxzaX2xtX9OH7Yfx/bseQ6pjKR5/YgN4KcSohHiqHU3NYRGQUr/v6CjlSlD/l9r6lo9eie6OMHo7E1icm4AoUKHVGogzr1YaN9G20UFDAYGMTWyPRUbaHDeaDvSDPhS6aaFvYADxZAzBIC2LNFkWoPlqPruASCjIbhTbbKVFkmXzHlk98UymVGg6yNoKJgvNUjjV84PPf/dXnzqcYsLDAi7f96XrX732VTddd8UHV/W3nclpeZQy0yhkFxjhWarVcfZ5F7G66umnN+JLX/0DejqAnm4Fp5+yDieuW4dd45NYMrIcn/rsv+HUM14BCGHc9u1fYWSkG03TZR0fRT2RdZOkdHDg08CXB+bms7jq8vU4+cSlWDIYg97MwDaLUMhsBBwUkgHzEmPBY21p+JyAfKGIjs52lLOLqJSL+MMfnmTgOhShSGFxyBu1deFbqetQ2iIAuFwE3/7R77BlLM/kL8FIG9sfpKKZ7MHpwmYWZ8H7BsKqh4VZCx/5wNk4+YQVUAUXpeI8yCWREcB0fJZ6CVwHlRigKOMjFkuyAT1JdwpFWikLQhJb3vikY6MIxQs+CoUMOtqTiEQDODA9gaAqMvsm6hwNzWQfPM1bwbNUm6tZmK47sNWYPj5X+u3PHn32rVy097CZyx0WcG3adFfsO5/9lzd/5dMf/nu3MtuxOLEDEdnD7l07GQkaS6SxdOUx2LNvCv19g5ienUOlWMED99+HyXEf73jHuWhLdWDD8zuw8fkdeMM11+Pjn/weVqzuhccpaDStFv8jkSOy2OLFdKvlyGyZjDQ887RhnHXmaowMx6BKGiSexkImSCJKrT0NmG1HRCSewkK2jImJSfT396CnI8qEhJOTE6wApxV6ZoFJWvpmk0WfQwa5h1yeD6VJAteO8Qa+9LX7MLS0B4UyKWLbWatPKZx+npyla+Ui+ruDsJoarnrtyVi9vA++VUUwwDNHG/ZwBQau1vjqz8FFaUxRo8yWoFBowPdkCGIYuWyJ/Q60YLtsxQgG+ruRL2QQjshsiD++dwz9fd0wtAYbNZmaCa2htbhEToRWN5GpajhQNaGm+/D09j2b7/jlr6+JLjt1z+Gquw4LuD5zy5t6lnVGP3T5+Se/3SseCC3s3w7fbiC3MI9QLI5Uew8cXsZ8poi+3kG2LEoS3WKhgNxisdXR6DY2bx3D8OgqPLNpOzxOxd59M+B4FW3JDgQCYVb007Is3Xn0ZItGtQpZEuDZNfR0q7jichruUl1mQxHIwbnBwOW5NDBvjVUEMYqnN27B009twuBQJ848dQ3S6QiLWBSpNK21nEGAYiLBP3smVCtytdIWvRyEYaELX7/tZ5hbLLIRSyzRjUy+hmg8yZqBcjGHerWGtgiwZDCAs09djdHhDnSlQ4jHAqiWaV/1v4CL91v2TMzxUIZlcGAjRhpleSoqZR3j+2YwNTWNQFBmyy3HrlkJzzcQjQUwPzeNJx//PVauGMXQYB+bEJhNDc16k4GLGhkCV7ZSx7zmAZE0tuydmXv7Bz/+tldc+4pHD1fddVjAde4J7cPf+Pwtt7UHnPVCIxvltRL27tzKappqrYHjTzoZdc1Cw7BgWg6CwSjyuSKSiSRcy2U0wexsFrd/98c498K/wY/ufACSGoIciLOIY5g+HJf2CGl2JrKLTrJgGuqSS6BBak7fxQffdxlWLqN1/yIT04m8x5hwxyYhHjkGRokzx68e+h0efmgWS4aAv/3om1Ct5BigCDSkCSNSl6JjOBxmW9hkOkeyH3rkFNN5sTGTB8cNgA/04o/P7sbXvvkwRpanUakRR6WiWK6ztEjvQSZBoNnEiWv7sHxJOwa64xhd2oNaJQeFjObYwMiGS5HroDN0y3+VXA8l5vsFhFAsGdi5cxJ79x4AJ6gs0v72oWdQagDtKWDFik5c8pqLWAf6q/t+gSWDPVi/7liWdp1mE416nYGL5D6UFknrldN96HwQE5lK/YQzLvjau/72k1/h2ocOyyjoBYNr9umnA29//2Wn3PGNT39Rdcur6ov7BK5ZJc0vJvdNIhAK4/hT16OQXaTKApZlM8P/RlVHMBBmakpyYD4ws4g7fvxrHH/SKfjVQ88wdWU81YNKzQIorfE0KzzokkxjDxL5kXzGtaCINkKqjbdfdymOX9mDzPwudKXD4Hx6Fo8JTqCUSAYjQUTjCcwvZHDnnQ/jgleuw/Klw+zCHtqmPhTBiOein2XjG9rwIcb9YJl9SPXlcAqEUAe2jk3hscc2Ytu2AupNIBAixp7GTAaSyTCLsL2dEk5etxwDPQkkwiLSbSHEokHopgaPt1uqDt6G59ts25tcCjk+CMMQkYgPoKmLmJjI4oFf/wEdHYM4af2puOee+9gslRQjpWqDVjMRiQgYGRnA+uNXYs3yAVb7ir4J3tHYjmRQVthNlM8X4PgSyoaP6UwVcqLLeGrrvp3f/sk91/ScftHew5EaXzC4Nv3q9uD37/jm+f/6jx/4olObHSpO7wZnNOHpNmamZzEysgzp7hTmFmaYLZBGD2qSApC5MNqSaRiugbnMIubmC5hdKOO+B3YiHFchB5Ks8/J5svgOQ5Bk5tJcb9RYB0fMNenDaHyk1QtQ/tdSw41vezXOOnkl8ov7kAgJMK1my8dUaXWLpuNifHwcJ61fj1KxiFg4hGIhx1h05h1/0BPiUE3FOCJmsMvK+IOfW2w+AYxWyQyyamp6mJzK4vnnx7Fn9yIqdZIwtx5yUCg00d0BrF0zhNEl3YgHfLTFA+juaEMgIKHebLR0aDylewceR5YChGSJ7TzCj8CwVOwbz2Axq2PTll143RVvwA++/2MkUikGLHKkppuv1mygXCiy+m2wJ4GR/hQuOvcUtMdluM0Spif3wGHeFQR8E7bHYyFfh8kHYAohPLN9cvrSN97wzmuvvemxw6Gxf8Hguv2Tnwzq+q7L3/fO132lMr8rkZ8cg+LZMMm0fzGH0047A3WjhkxuAW3pGKqVOjhOQkdbH0IxctFbxMzCAuJt3ZibL+Eb37mPbcr0DXYjV2rCgwJBpGVSkdEPZOVNW9EkLVFk0kUZbKTSHudww3Wvw/rjhlHITLAHPlGxTxeqXKkxDi2eaGPzNnKeISXGzMwB5tFFrDYBizo+2rpm0Y5rPfCAljb+HFwUvQ69CFy6Ry47MdTqLjZvGceTT27Bvn0aU2EEAkBXp4LR0X4ct2qIWQlwXhMdyTCSsTAMQwdPq2psFGrC8034REvQnBAKHF9FONLNVtRi8T7c8rGf4ctfuwU/+OFPkM2VmMcXpXEaS9LIifwQSd/WrJfhGi4kH3jNK1fhlOOXIxVVkV+chW002O9FpQXVsLOZAiwhiIrBYaqgzZUc6UffvfOXX4osPTb3QqPXCwbXzTdfGzqxu+2dV156yscyk1vi9cX9iAgc6sUqSvkS1p/1ChRzC2joZI5GYCoxnqW/e4SpUrP5DLPVVkJxzM8XWfT65T2/RzYPKEGeDVqp2Hdcn0UCZhLiWMw3nhzAaR63ZqWKE9eO4sJz6C4VUMhOIxQi5SkVwT4EJUhWEcwYpKe3D3v27EE6lUQ0HGRb3MTk04IG6wypS6yTU43NwPYf3lytU/VfwaVZDnMWJGebXK6B6ZkCsvkKczSkn6X9Shr3tMVlSILJ9iY7UhGoIsf2IqOJ9oPgIi97g2nSKI1T5KK1sXLFQTjagy9+6TtYsWodgpEkfv/4k2yMRut4VPtptIzi+GwVLSiHmdMizXPtpoZUGHjl2eswzKypTLiWDss24To0AtIgqWEcyBShcQG4oVT2N09t2fK17935rrUXXfaCt7NfMLhofWy0P37Tq8499j2ZiS1dXm0REYlHcTGPWrmGE04+Fbn8Igv3SkBGNl+EyMlYuvRYVIvVFjfT1c26H1ENQxSj2Ll7Enf86Lcw6e4PkmeCz8w9KBIQWUh1BikuyZE7FALOOWc1TjtxDfo7E3DNEiy9wpYlqEzWDAcdXf0oVTVk82V09/YxgJAiQmtWwdk6dK0Gz3FaHhAS8UIWM+AlSqJlhvUfafE/wEWmJdTQSUzWYpoCDIuaAY6Z79Ksml6qysPQK1BlB5GgwBZayTKJxttVmhPSU9MEHp5PDDrVhzx4kbwlRDQNDoWiickDBTz97A6cesZ52Lx1F7bumMTwaO9BfVrLUZoXA2xobmg2Gw8JvoOQ5MOqNnDGSUvRk46gMx1FUBZZ9GfNiudiIZPDvuk5hDsGYIjR6iPP7dp+40c+eePl73rfzhc9ct11+62xRnHvDVe++uR352d2DMpmGYJtoJIpsjS2auUxyBSzgEDW3DZKlRq7K49bezqcpoGp6XGkkmkIoooM7fW5EjTLx/j4DDZv2Yl8rsyOQ6GfGigaYdCL2njaPxwe6caq5QPo602CsxtwzSqrxWhsQ/Wd6fGwyMabD6Crdwi79uxli6OUFk29is5kDLbVZE+3YGz8QQEgqVxpU4d0WK0K679Grha4ZEWBYdDszoVBnZcBppUiPo5ZA4TIsKSKcFhEPK7CNZtwbZ1RKARUwxOZwpaaCtu2wNHamhhgx6k2aBcgjH+69U5c9DfnYnahhO279yIYjTEvfFrxb4tFWS3pegJ4TmbpmDz6Ha0B3jXAmy5OO3EInYkARoZ7EA1K7GanG4nGWwdm51HVLHSPrMH4QsU5UDK3rznt3A//3Zdu+8OLDq7dG+5O3n3HN9757usve1MtNz6qOhXo5TyMss4e2ERmsQv5RfAyJRyX1TzFQg2nnHg2W1Wf3DfGFAhdnb2sjrAcjjnCxOJp7N03hYn9062ntNIjUQ4+jZVIRvJG7evvRN9gGpLkQqW7VK9AAlEdlDpdmC4QjHYw1jwS78D+qTk88+wmJnGJhiM4fu0aqLyDRCzIHjSlaZRqaf2LnkJGKdVoPZfxz/Y3DkUujx7wA+9PtIXr8JAlirzhg8CSmGmIpldg2UTGCgiqAnOuISDLIvFuPGxOhkhLtSCHHYvp7AWRHmbFoVS0QPfi1297EDe9/x341nd/DCUchRQi6ZDO9FypZBuqlRpzeqYRmSpHYFsW6sUC9HoBUQl45VlrEZFddCSDcB0dB2Ym2O80N9dAf08UDq8i2TeK3XNFGEps/3RBu/3eXz1yG9f+wp5e+4LT4uK+J9K33vyuD//D37/tb4zKgRWqU0NlYZaR4+l0BxP/zWXnIQcFSKrCnry6a2wvTlx7Orp7e5FdmMLiwhw2bNyECy64CLWqjtHR5di2fReSbSlWn7ElVY26zJZ1JHVztAgbT0UBzkStXoQsuIzr4tDq7kzLhRqOo2ny0FwJhi3iU//0A1z1+leyh04989QGzM8C171xLVasWILBvm72DB8qeEWBymOaCuhMhMfmfQf5h/8KLpK/kH0m1VjhUAyxaJqRwlSsm5bOBtMEWnA2RMGH69lsmE6/R5Miq89BVBUmo6GbTIAMgVdRr3vI5y088cdtEJQUIrFuPP70Jji8CJfjIQeVPzUepAHjBZUJLI2mBY2kNp6DkOhA8pu4+MLTIbp1hOjRfZIL2zHQ1UX25gtoVHTUCJjRTuQtHn6kfeYH//7Q1gee3PiO1Sed9IL4rhcMrvri8+kPXXf533/xcx+9uJ4ZH0Yzj2Yxi3KmjFWr1iCzmIcYkGD7BuuCAsEwNj23DcMDK7FsZAkymUls3bIR1WodK5avwpIlS9mun1bX2CNPqO4hleahR/wyUZ3rso4nFAlCN2pMumwaDVhaE6GAypZsdYsSnIKy5iGS6sOnPv2vOP/Vl7Ax0s/uuh9DAx3IZ7OY2g9cdvEAzj/3LHS0t7FHFtv0IFBLg6pycGyDAYxqMXpRLUWcmMOUpi5j4CkK0bOvaYZJMz/maX+QdSc6hCQ1PBG6NFbyfViUxhx6CBUHNUqThwbCoQBzG4yGE2jUqGgLYt++RWzZOsMK+onpPPZPLyKa6oQcCkGzyQUngMzCIjo7u9jQPJsjvb2OgEJLwBrqhRxOOm4AvR1BdKcDDFyKQq44RHP4cEwP8zNZaJYAkw9Bl6Ko85HFn97/++mf3vfQG0656KIXVNS/YHDVFjal/vatr//olz//kasr2b09TmURzWIelWwFa1Yeg3K1Dt0xEIwGYHok/bCZ/8PKZcexgWuznkG9VmAXjLo12r+j6X1L9iyDozV8ttHTWtggJ2MqRJkpGp1kq8nSj2sbcCzagGmpQi1fgC+EIUe68P0f/TtMV0J71yB+8e8PYWCgk62/C4IPmecxO2MimQDecNV5uOC80+Ho1OnOIRySIPE+W9Yl+kMQOcYp0eZ2rdZAvV5FJKSyqYFM0wNJYXuVra6yNSsMhRRYtoFao8FApQRCzO2G6irSwDfMestDPx5jmz7RUBycR48tFjA7XcbGDXuxdTuVFSGke4ZQLDdRqNfYDieRtORZQf+mT88eYnJpOkcG+x1cw8Krzl+FmOoiFZeQiMpQRI/ZN9GNQVklO1dh1gEaAtCFCBp8JPvD+x7N/uyBey4/7VWXtfLn/+PrhYNr94bkRz901fu/+rm/e0txfqzHKS+gUcyjnq9h9epjWegv1kpIdqeY2QgNXJu6g5HB1axjyy6OIxpToMgy62JodkiKShpRMDWCS08Ao9+ONOBkikuPmvMhShIrSslXlE4UrbGTTIWeTEHpweND4JQYeCWJt7/ns7j2ujfgwYf/gD27MxgYTjF2n1KTLMqYnMjS/gNOOakNr3rlmRgd6obEW8xVmiy7RZFUoTazUqo1awcNS1rPbKTHvLQkMqTAon+ftrwPKRwc6JaGaDzOvFGpcyVlBj1ziLrKht5E71A3ypUcurvSyM0vQuYFhNQoSvkGSgUT+ZyF++57FtkS0D/cDV4KwiZOLhhqcXC0jMGsmzim76L3WCnnoIgOOlNBnLJuBCqnM0O5VCLIyoZGs8bOLTlDL86VUW/4qHsKGnwITTGS+9G9T5Tuuu+u15x6yZUvyG7pBYOrsv3JxAc/cOW7vv6vt7y1MDc2bJfmoVdKaBTqfwJXhbamUzE26iDZTa1qgHNVLFs2gmxmD1MHMDmvTbNCnqU22pQhVUGL2KTRCG3LiIwZII6H6hpJUdjfsTtY4Jkengp/y+XBSVH4QhSbd07hjxt3ord/Oe779e+wdMlSzM3NIZmgRVwe9YbF+C7HaaBeKqOnXcFF552KY9YsAe802COGZeYtYLNnDVXqLfchGiPF41EmWqSEyYbans9mjy2/HY9xVmRsYtq0/EqJUoKoRNnMlHYCSPpTa5ZQqxcw3FiEAIwAACAASURBVN+LYn4BZrOBsBJCdi7PBtYiH0cup+ORx57D2P4mQuT2JIhMMBlri9IRoetEwHJs1Yw9DdcGBntEHLd6CMkwx4DV3hZgW0O0SUQAZNboahQLM0VUGi5qrowmA1c095NfPZG/84F7LnnRI9fEpt/F/vH9V7/+a1/82PsLMztXePUs7EaNgWvFitW0fAmD+BuZYzLjUCSOvePTeO7ZHbj6yisQUMh2qAHPpYKXZ4NouvNd02BkH9VWHoUuXgAvth5fR62359Oj6oiYFNkWUfDgI+tIUEfPjOblGBoGj5/d8zssWbYWv7znN5ACEQRUetqZzp4OJrBHD5NDjgZTK6NR05g90VmnjeCMU45BLMwjqPhoNArQmzVGLUTiEcYR0byRIgfb+jkILHLEoZuELZmRoIGjNGXDgQApEIKk0nsSUKoacBFAKBxli7mOrWPpUDdCCgerWUVA5lHJlyFDxbat4+jrX87I2See2YxMoY5iDWjo9IhjMIUr0TO0A0mbTUQcR6McO97IUAeMegZLBzrQlYrD0upMKk2srUQjI0/A4kKBddNNL4imFIEuxTJ3PvBo5pe/+s3lx15wwdT/Y0b8M2bwBRwht/PR8IduvPLMr3/u7z5fmBtbyetFwNRRy1UxMrIcTXrmtOfC4SzU9CZS6U5s3TKGH37vOdz84cvRniTwtNyUFVmEZxmM3KQNnki4Ffr/v/beAzyu+sr7/86duXV6VZcsy70bbNMMhAQTShIggDeQsksaKSypG7JphM2GkPJmd0lIIaEnQCCBl2I7ptiACxhsbLlbsixZZSRN73fKvXPf55yx/5v/Ppt39wUZSNbO44cnYI9GV2d+5Zzv9/PlFFYbpYwRwltApdrgYNEP1qU5+YE5FRV2UUY+X2JMtyk4MTKew/rnXoXDGcTOXX1QNC/P8sgpQ69fKFXh9rYjk8mxTb6QTfDI5JwzOnHuysXQpBrMahY2G62oFruHCP5BqymxuOjiIUqkWGjo3blHRnwediDRz9BCIBDA0dFx5Ao1+CLtcPs7MTqewabNr+G1XXsa58p6Ba1NHpx52iJokskBnzZyUNtl1nERY0xxBlCti+g7chS5EhWnDWNj49y6IAMK4y1Vmacg4ZCXG7Y0EXDLFmZNa4XPrSE5GUM2leVLh8NOhOkaG2XyFRO64EZZ9FBxjT+w9rmRPzz9zFULzl41/AZK40+y3l7nq+zd+7D0/euvm3Xbd7/+UGJ073zZyEGoVZAez6CrczoMSgwrFqD5NWQLOXbG0IH+lz/fiM9++r0I+GlKTz88goZYsDhNVYcs2pkBT1sep4XZRDho2yNkbtlAuUrqTSDo9fLK5VQ1bnTmc0QnDKNSV7Fz3xFs3NSLiSSde5owEc/y2Y46/AGfB6l0CQ4lxLpyGsvEoodRzOg454wWvPOcUyCgwKgiv19FKODmlatiVLhlQJ10KiyC1NE575gNkT2JLPZj3RcwGY+he8ZcaO4Q9vUNY+sr+zGRoPfYDF+gCS9s2ISanuNxzKc+dgnam12oV7PwKBJDggPeMPbt7UPVsEN2epHMFFCs1ZDXyzhyZBDNwRZu71QNg8Ekbq+LpwKCrQqHVcKMrhb4nBLspsWrYSFf4cKyQUK5YjIvo2TWURM9KDncKNq90QfWbhh6ZN3Gv1l83nmjr7Mspmblolf5wFmh1n+75WuPJkf3LpPNnF0yq0iOTaC9vRM2u4SJZBwd0zpAZ6+ybrA05J67H8NVV70H7W1BDi4wqpT/XINCRgOHAIvNsjpvizWTdO0SBEkGmVBp1lgqV5jDQEEHNAukmyMd9IkmGAy1o1QTsfnlXtz/4GaEW/zIlyhLJ8ANWboI5HMZuN1B2BxuDA0NQxHrfFXX8ynMmu7DOWctQtAnorO90Z4QqI/GbHob3wM5WphijGmt4hQzKrJGlB4nwlKEnk2AaQm86ozH8tjeewgTiSIcso8VH4cPD8PjppTYBKLRMr715Yswa1oYejaKgFtGMU3wOAttbQQVrrCRVdRcyJV0pPMFBHw+FDKFRhaQLEF2aQxhMYwyvF4ZLRE/7PQcCwWUs3lU8jRTJAeQzOc/OmIMDg5Ap/hk2cu3xRxcI79Z8/zg2o1PXz1n5QXRt7y4Ljot4PnFP//T/cXEwBlWfizsclRhlUq8zZGLmsYwDkXj1cah0O1sCLv37cOyZadiWlcTO2RoNeEzFwVGE7+BHMrHDsqNvGjqHdHkn4R/wrFbownJZocqk+6pimyuiI6umdArdaRzNezZP4A7734BvqAAlbcVem2Jt89Kpcq9NToT0WFdqFdBur2msIoZ0yKYOb2FtyoaMpPhlmiEwrFeF8FGjmcvikJjJSQ9Fo2MWAVPUcOElLZrmIyXMH/hGbjxa9/hhA9voAkbX9wEy+GAzaGiakoMYSllSlg634uL37EMHWEnhAoFGCgoZTJwO4mGKDFUjtoZIFyS0ADuinWTm8w2WYbm86BOPTabxdEtVq0Kv0tDJV9EmgwiDpXHQ0QvVFQPf2j7+w9BdLqRMR0wnWEMxEuja7bs2dvbf/QaX1dX+i0vrodvv8m1fePav7/+2ss/pdYzncX4EeiUUlGvweP2wemmhK4KBBpzCA70He5nfBDlGqbScT6j0FZSp7jfSrWxgnFKhcJKVb7Y022I2gxslScEJfG7TKQmE9zRJ5IgdeVpiEzXfdoaR8fTeGnba9jV24fhMcDjBTSnD9l8iY2hmiLDhirsqEGWwICP5ogX07rC6O4KIxJyw+uWGRNgs5kNUNYxks3x4rI3kCksMTbpQ2EHb988kBZcUNUW3PfgUzAtCn+qY3hsHBXTaDisYUehIjDMJDUxia4m4OJ3Lse0sIruZj+Ppmy1CuxUrKbJtv0anQUcjQhkUk/KdQtHjx5FyTDgi4Sh+nzcA2OGfbEIr6pCMOooZgqwmQJvi5WajY8nE7EEF6agaEhTyoinGYOZ8uHtB4cf2/rS3m/bWltLb3lxWXv3Sp/4wuVXfPojl3+t1WMtSI/1wSpnMaOznWUlRKUhJ7XTG+CD+d79+ziZgsLCqYA4No5oWnbyBlKR1TjnmQ7zKrUbmBpzDFMkNPpf1JKgBx49OoI5c+ZxHk65SgGYKZSrFlrapiGT1TE0MoGnn3ker+0sQ5IBUSYoGncNEAoAfr/CSgG3U4Tf72TlQEuzH61NPvh8KkQ7ffWGcYLLnL42i/moyC04ONHMzlosNqPa6mzeFUhFWhURaZ6D62+4GWeecz4OD01i195D0Nw+DgK1SzImJrPwe92IRUfhlYEL3zELAc3EBWevgJ6dhFMkmbbeiIahq6BD5L9LBzq2vuXLSKczEDU3vOEwynUTerUCjdDhioRiIgkSSlMIKOVsZ9JFSKLGBuQ9+xoGa9MuIUNUIHeTeTRv9uZM+4/ufeaVB99IYdHffcN9ruNv4J5brj+rb8ez//qR95+/rD2g4PDeVxDyaI2uOzEfJhPQXG7ekgaPDqNMuG3BhlAoDMFOh3myclGviiBp9KE0WFNF7a3j9BryFPJ9+3hya51uUo2YlqVLT8XI2DgrEogoSEyJVKYAWfMyF+HoUJT/SQ1cYjpQd5pem26nmirC63EiQPhw+u2R4fEoUGQSI1Y5D4hRmNy/ArchuLgIJFIuw+1UaTFBtUpG3UZxkWSmUKhDUVvwwMN/xMhYHqmcAbvqRaVO35QdFdNEIp5h91EuMdZog5w5B5XsKD585SXIJMY4pgV1yn208wySWg4lysxm8K+Mao5ufEnYFSci7e2wkWK33FB4CLUafE4FtXyxgQEwyQyrQ5KdnO/du2sPTxVMuwPZuoSK6C0OpEovd85e+g/fuvOhnW+b4proXd/999de+bsLVy6cu2xuh2vy6AF0tgQZmEE/fI8vhColrQp0S6nxUm4XFXT1zIGqOdlIQbG/pQItKxRw7mAHMXe7SVPO4I46RA7XbDQt6beul7H15Vfw4U9+Eod698Dl8vAqR62KcrXO/11R3cxLGI1O8sMlxhfN/6gBSsZRkuiQksKlSZAlgXOwqVgIb8lnMmI5HLNRkJKB6DTc3xJIa6azfJsgKFatzCGgsuTkEY6uU1iVD7v3j+GOXz2HYg0ItQShesLcTM5ks405qQjouSzawhJWkJI2eggf/dAVqOkpiKSvt5mwk0SH4COmwZ4DDoNwaCilDZhE8wlH2GmVIlRlqQiXpsKtybBXKsglJpGJJaDynNZqKExgx+GBQciyE6YgoQiVtsbU3pHUs5dc9ZEbr7351jc0V5zSlYsINz/47PW3Dux6/kOdAcmloIilC2Yh4KW85jqm98xknE+hqLN2i5CMlN9MzUQ67JNSgLZIn9cFp6agVikxwtJNPAlaPawq6J5GchhixfOhnwOV8lizdhO+cuP1GB1pQFroRkgPX1WoPUErisH/DhatjmKD+kB3BuLX22gFoJkhZSw2LF5kkqB/Nrrsx+QQfFCmTmXjUkH/pIaD5vKw0oFWwHpVZ54r27cYxKtAUkIYGIphx64h7O8bxYu9cQQ9IgyLVLYS6PPDg/IKMK1dxJzuCCrFGD5w5cVQHDXWglGoJ0mha4QHOIYmEEj6bUmYGMnwgF52eWHa7ZziQbdXj8sFhdzjZR1ivYZ0bAKq2OBX0Gpf1HWkkhl2ERk2BbpNxkTRHN01OL72S7f86FvnX/MJykN+Q7+mbFu0rI2O9fduuiZ9ZNfN55w6a1p69CA3BCUuBpLIeFE2TBRLNUb4jEcnMTyWwrYdBxs6JEWBx+PCtK5OzOzp4q0CpAYl80Kd9MxVwKrw/6ebmUDwDgKk5Sr44zPP4eKLL0Z3dxeiY2PsPSRJznHOA/XB6LzBSlOH2OhT1UkzT6zSYwfyY1RCklAz0Yb8iiy3oRWDgqQaQLoGg0tgVQS1RWwOhSmFhERyySIcpJKl8YoFRkKJdheL/myiDzv3DOChR9diIsl2RP4wqXYbqroOpwS0t3gQ8WsI+xWsXLEIgkAJakXIKulWLX5+dkWD4vJyEEIslkcqruPoSAwTqSwEUUYg0sKN2+RkFHtf24czlszEKfNno14uwDIqDDaheBiSCekVkmLLKJsidEHFRMHo6x2euOPuR57+eeuyZW/oMD+lKxe92IsP33ZuceLgjy88b9kpezetg1kmb6KLl3XiexInyi45kc4UMR5N4sm1z2PugtOhuoMMwt21axeGjuho77DholXvxMozl8MwioBBjdQS2+K5LUBbBem2LBHVuornnt8Cn8eDyz94NY7s60W5RJOAAHI5Qlpa0GQa8xD3qmE1o6MbfYL5HHNMBsNeSE7AaFwubA6RfzcOffRPB/1L3k5IXm1Q49ESsHP3Ab5chANuTO9oRkBVUSll6LYBl9rogh8n9xSqQNkQ8eT6ZxkLHo0mEfFLLEkO+71oDvtABuzZ3Z3o6giiWEhzC0TRFD5SUONUkDRYDhVHjkTRu+cgBDgRbu6AO9iEWDLD51n68FimgWw8DkEHPnjFO+CSbagUcvC4VSYsxhJx9oIqqh/5ig26XdHjJXPPwdHU19f0R599Q0vWsb88ZSsXvd6GB//1tIEdL/746vede+bQ/pdhVVLQFHLRHPvUU2xm2YLX14z161/A0dEk5i8+Gxs2bMXISBRtbRH+gQ8OjbMSdN6cVrznkvP55tbgbsUQDrkZ4EE3O1F0oqArePW1fTg6dASf+9wNKJdyGBklbEA75+XQlkrnN97+iEVK20ulEcxJKxn9otWLmrLEuR8kPbnHC0V18uiKGBOUv6PrlMlIFGgfhoZHsXnzVvQdHka4uRPBYBi//90OLD9Fwuc/9TH2CWqygFIuzUljJBmiqUIyW8R4LM1FkMmTqaIKo1xEKZ/hzOtp7e2Y1TMd4aAXglXlCwKJDKm1kMjk0drVzaLH7a/tw7bte7Bw8XLEE1mkUgVEk2lusZCQkD4wNGt30PZeqKCzScOF561kSK/XrWF8fAyTiTgkiqyxe1E0HDiayMVLlrRG1/zfuG/DS2Nvu+La8tgdS7au+d33rv+7K9/Z1/uiJKOIer3AYAzuU9kVHrhGIp345S/vR3vXHBw6HEc6W2b/nUHXbZLV1IjIUmLUj98HXPbeC7BwXjcEFNkAWzeK8LokhnK4A7MwOZnFnj29ONR3EN/8xlch+V148an/DZdbhd/n4kApkuTUyUJGSG2JeAqNuBYaM5NcmDTpxF210YBcUgmlzemr1BebmEihc/pMjEbjuOvO+/istHzZCoxNppAr1DE0NILWSAg7tu3D6cva8fnPfgyTowPo7IhgYmKIm6tUzKl0GvF0jvlYNMAnPRu/N+Io2iWOFrYZhF2i91mjXilMOuHJIoqlCuyKB6WygOc3bWdQSzZfxsgI9c1ICUILuczvjXpg9XIF9UoBlUwFbUHg0gvfyQNxRbRhYiKKVCaFuk2CXldhCC7IvvCeex5Z96vv/fC2ey++4YYpCf2c0pVr14YH5v/2X39403du/PSFr21e63aKBAPR4Q9Q+haNSVTkimSJasWPfvQzXHDBZXj40WfgdAX55pfJFfimpygyAzRikxlkSsCF57ThtFPmYmZPC1DPIehT2a4Vi+dRqrjhkHyIxSfxysub4XYpyGXimN7djmXLl7BU2W4zWZJDKwV1tSkKmCjL2WyavX+kiiAtVKZQQKS5k4LvEUvm0dLeg/GJJEJN7Vj/zAvYvmMXFi86FaKkYv/+g/xhoeYo9dc8mop9vTtQLdZxzd+chzPPWMgfhNjEAGw2OjuV+WxGWxZ9rYA/DJ/fi3SaVhAHNNkLSZBRq9RR1cucY6Q4qYUThZ1GO4qHgwpqhoqn1r6I2fNOxebNrzQC1inwXVZhUxTGhvNQPZdjhUVdryPiAi57zzm87RZzaV65ytUKyqYdBUOBt2labHAytXHngUPf2jyWn7JMoCktrv4ta3u+96VP3/iDb3/h0l1b1kUcyMHrdcDnd/FckPih6TyQSOhYt24zunsW4tXt+2EYBOqnQEzqYRF6ka7+BNA1kUmOM9ZyWrsHH77mMo4M1pQ6JAeJBkXY7C288tEAdnDoMH7z0F7MnwFccfmZ3LPSKG/YMjgTkTjtpGXiQRJDRwoN+xhZwJwuxFIZeHxh5EsGD5oJhhKLZ3Dfbx6G19uEZctPR38/af5jLN0ZG09AVD1oae1AH3kh/R4MDRxCrWzg8zeshlFNk2IMRjUD0yAJtoiA3wc3ZShadl45ZRexS2nmR2pWjW13xONivICtDs2lwhTAfkUKiSqVZTzyhz/Cbvfi4MEjaO1s44awYXOgarOhSqtYtYqqXoBVKcJWMxF2Axe9ayU6WsMYOtLPoamypqJiOuDwt9ckd9POn937+9u++E83PnXdV7+fnYotccoP9EPbX2z56seu/NyNn/nw+5NH98ys11IIh1VobmKHeiBIdHOy4/kXd7FNvXf3Yfb4FfJlVmeSG4hugHq5EWxASRfJ+BjGowWE3MAXP38FOlo8IPo6TEJQKvB4uzE2kUbfoQO4+55N8LiAm799DfoPH+BkMNqSaXwTCvqZT8om0gJt13UOkKKuOhWaZSecI93iNOSKNYSaO/Hilu149dU9WL7iLKAu46VtOxCPZTi9w6k4mYZIKzId6EnvT6st4SNJuuPzObBi2Ry4VWqflJj9Ggl40BwKwkXD+Ao5nvMIttJQndJoBUgCNWNdqNdJZ29wlpFhNUZFstPD59VyVcWWbXuwccNuNLW0MCCFiq9qkYXO4j4Yp6vVa3BYVdTyOtojMs5YuoCLa9++PSjpBYSbmmDYFVSk0JFDY8nHxjOFHzy9e+ANu6z/tDCndOWa6F3v/N7nPv+BM5bM+FKzx5orWBkoigFZFeEJhSBqPpSqKu67/wnMmrMcDz/0JCeTUbeYDBgkAaHrveBosNRJ1FcuUDydzo3G9160CIsXTEdzyAmPU+AmaSZn4wLYsb0X8QRww/XvRlNzAKMjRziCJRkf50RZ2hb9Pg8TpemTTTNM2pYqlUa0MNnQ7LLKCgZitcdiOTy1biNWnnsB9u09jNGRSW6OUuOS7HFE6KNYmVwhyyJGstH19x/DZNpMDAyMY8XSIObMakbYL6I14kbIJRP3GY46INlE2GQgUUzCpojQRD8Em8oEQXISEYpSdcqN+BaHnQWHBb2OVK6OZNrAL37+JObMm87hEPT16bxVIS9jpcpyctOoHCuuGub0+NDdGkFrUxCDQwPcoiFYb9FypF/oHdg2ka3eevNdt7x88cU3ELBiyn5NaXHRu7r7Cx86O3Z4149OX9K9VHYUxDryXFyuQACaN4KyQcTAhxEI9eCVbb1QRSdkwkfWqUNPuYMkCtSYhpPJEIzXhGWWGP84f3YIF686E80RN5wKMDExyXTn13buxeF+E9deezre+76LsGXr82hrCbHKM5tJsnZreHgIhXwWixcvRjgcanTnPQR2a5CbJdWFXLEKX7AVFcuOh373BETZy/KdPXv6WaricvqRzxKGW4ZLcSOeijMdmjyUI2MU4lDmjncqFWPbPN14zztnFtqb3ZjeFkTQKfFIRqiQEFCCqEhIGUk4NAWS6EUxb2D46CRGRsbYlygpdsxbMgcd3dM45pjCpwaHk3C6W/Gb+x/H6FgZHa0B5p3R8JnmitSuIDeRUSvBYRmMyly2YAbfHJtCPqRSSQ6eFxxibTiV23NooviLFRe/75Gb//WeKU+PnfLi2n7PbT0P3f2/blq1cuEqza43C7YSVLKxuz3QvM2oWC7ccecjmEgS/4EY8GRWIC8d9SsJGyTxeKJWNUDZP3VTZ5Wozaxj8YJmfPQjVzHbnnKud+/ehfXPFHD5Zd1YvuJUdLQ1I5GMIhDwQtczrK+iSBgCj2ze9CIOHMjh3HNnYOHChawBY+t+vcom2eaWDhzoH4A/1MZTg5u/cxc+c/3H8dsHHuUVRbDT6kp/vhGvQtt2w9Wd5228qJPkRuGbIDUpKflVsgHLlkTY1jWjI4iupgDP+viuSt8jDJQFHRaFhkJDLmdgcCiG/sOUKptC2WzImVddNBdNLRGUa3VkUjqWLVuJXb39uOvONSwLl1SND/OkHilWyyjXyixapMJq8spYsXQx0okofB7yMZShuNyYTGcG9w6NrTvjog/d+o2f3T2l/PnjS9+UF9fgxruVL33m8x/6+OpLPmOvJZf6ZAp/MnmAbZNcMBw+/PAnv0apriGnW9CcYcZq06yuWiPLVg6FQmOEwRF6lQJEmwG3asOi+dOx6h1nAmaJH9adv96Mqz84H3PnzeICyudSLDqk9gOdszLZBEIB+rSmkEwQKsDk2SNhw4mSU6tTvqENLo+LSTqDR6PwBlpgwYUf/8tdOPe8i/D4489h+vR5LOOJJxPMjidLGgdUqRrdFVDIV1Gs2WA5SLtWQzqbhWBVEHDa0eR1YPG8dsyd3oyQV+b4Y9bVGwYkVUSVVhhJRtUgDpgHv3/0acQSed6iU9kMJuI1hCPA2SsXQZEEdLW1oq2lFaZh4KEHHsfml9KgObjmsUFxq8jrJc70jviBWR0hRNwanKIIs1ZHQS/D09wKQ1TSj67fMrTqivd9/qZfP77pLyYSj7fGb16/8Pk1v/3BJ/7mPctTI/3B9ogPXe0drP2uCi488NhaPP7MUbR1O5HNk5lBhkzpW45GegRRWmhV0BQRsfEYQgEH2sJeLD91AZYvnssumU0bn4ZeLuMT132AOVc0OKarPm9H1FQXTJikQ1cl3vYI0Eu2NFp5SAtG80Z2G8kCBNHO9BuS6IiSF3bRj0d+/zQsy41YsoyBgSjTYAKhILLFNKekqU6K+s3Dbso8vipVbcyf1ymhlrr+1RIquRyWLWjCwpnN6OnwI+CTmVlK4p2KUeXxk1OWOINbcoZQqal4+rlXsHnbbri8QTa+FooF/n5Wnb8U82d3s9GiXtM5ouXQoWHs2hfDwNEYjk6keP7o8dngdsnwqwq8ioTOUAjpeIJjnKs2Cfm6gGSt3rf76Mhj37njV/9y+vnXvOEZ4p87pE35ykVfiOxm11x23lcuX3XWVfO7mnoKyXG0hYPo6JqGobE4dh8axKZXdmNvXwH+kBMVg5qcFGxpNUR/lQrLbkjA51YlBqX5vQoWzp2Jnq5mxMeH8ezTL+Caay5Cz4xOpDJxVMpFaCpF3VEHvhGvSmJASs2gpin9JkUrKVCZPUHNLJB6QkehkMeMWbNADF/yE9K2uP/gGF54/jU4pBAOD06wHSwYjiCVTcC0qnB6GmgCOouJkhtlg1bKIht2VUlkkl81W8S5K9oxuyuEziYiCTrgdmuwBOpXNSg6iixyPy8Q6oJuOPDqjn785ncvw+mh9gKJG8EK2QvedRpOWTIXbk1CIZXkdLJS2cK2XUN8AckUqOdX5LAqTRbhlhzQyD4GASODQwiGm1GBHeOFcnE0W9rlam797k/XbV83Zaf3/+SFTkhx0de5958+tXTbM0/ccvmqs08XKjlfOhbF2WetZLXorr0HoHmDeOCRxzEeN1GqNhJRWXTgALcQnCo5eyT4fW4OU5IdFlqaAmhrCvBVPz45gQ9/aDXGJo8inU6wLJpGLbLigF4qMPhNkkV2Sh8vroaVnrRZFh/KiU5IXsREIgFfMMC3VaNuRyZLeCYnnnnuVew5kMa06dMZpksrk9NN6KEaCnoOvkAQhWKN4/poSyeTLSskyjo8CtDiFzF/WgizOkNoCWqszSJ5DvkZjXodsqqwCSOb0aFoIdgcLuw5MIQn122h9GT2GjQ1y+jsasKypQvQFPTAVq9Dcdh5XEQcsENHk/AEmyA5VRSKRTar0GiDznuOuoXMeIy9jMQBi+dLKDrUyQNj4xsuveajX//IN3/0hqxj/1VhnrDiyu7dGrjnFz9cfbj35S+ef8bS6YV41B4OeLHq/HfhuWc3QKNcwGIVvQcGkM4XkaHxj0HJ9Xa26nvdonwIEQAAHIlJREFULrhdGqo6RZH4+eBKSXCRoA8VvYBZM3tYjlOtk0qTNE/kwqYpgMUqVtrySAYsUqbiMS1+I7+n8UjswjFFRJ18iQVUaKhdr8Pp8mEkmoTmasJotIBHHt2G1o52FCt2ZAtVeAMBblRSC4L0U2SUIBlRzWisthRoIFs1dEbcmNnuR3ezE7M6wgj7VYorgM3R6GGRfIdDEKj9AgeSySJUVxBHhqOIp3IsJKwYOgJBD6Z1tqAp4odEscWVKtxOFwo5HSOj41ACYc65ZmyCXuF5KQ3M9WwRyfFJ6CzBEVCngPayiarq6Xtu+87f/+Lu+3+06D0ffEMa+besuOgLj726bvYt//j57+qJ0Xe987QlPls5i0tWnY9iLsUADWpAZqoUYFlAMp3iMQydj0hHpRALQpHR0d7GAkGzUkE+m2JnkCzacMH5qzBwpI9TX8luf7wvZnJztKFmJZkK3TiP/zrOOmUDBa1gxG4QFdgsk21vNF+UNBrsplG3aagLbuzZP4ZNLx9ApSoi1DoNJAujWR4pJujATbk7iqahbpSRp9YJgJ5WJ2a0BRB0CpjbHUZXix8+TULdrLDosKG+aGQx6kXKUdRw6PAwFM2Ngm6gqY1s+47G9usUWZ5t4ymDF+W8DoPkNhNJbk9ofj/ShTw7g+i86nK5IdtlpCbTiA6PwKm6WMlRpMfgDuZHcnrvtoOHv/nSbfdtsq1e/e8P57+qlNfx30/YysWrRbLfs2nd2uW3fvOLv7r8/JWhkCa4A6oDpy2eh3I+g529r6GFqDZGQ5t+XAZDygXyF1LAObEjqG1AMI9UPIbY5CS8bjfmz5/PRUEHd8syGA7C0FzyE4oi7DRvI7WDXmDUN62I9Pvf83sa2G+OBDAbFGXSyOcoA1JSkcnXUKlKsEkhPPr4RgwczUB1h1GqUXIGGSREpHIZ9jGSipXanDBKzB6d092EroiPEUYz2kIsnyaxDt1W6WZYNgwUio2MSXL30A02OpGAYHfA6wsgEA7AF/SgViePIX1fNZSKOYQDYSQmksgkc4iNpxCKhJEpZWCXFYYYU9wygV7y2SIK6SL0YhUyeSspFLVagxppH9y8v2/NrNNP+94P7nriDdnG/ju1dkKLiwts4nDkJ9//9t86yom/6/DLsyuJUfvyeTPRGnRhaGgQecrGObYVqmoDP0RbDFvjWVFs43kgif+IYrNv3wFWrVLLYtGiBQhST6tcZA8e8b/sDpHdxw2vo0BaPy4oDnmqUW+twe+iAlSo2GhkUszyqIm2rKHhQcydvwCZfBXjk3nYxCBGogWsW78Vew+V4Amq3HLI5WkbUxkQR6FPpMOa3uHF9PYwmvwqmvxOhH0aPIqdD+10W6UtmYR+5A6bTNLkoYR6tciqUVK30rFg+owe6HoBwSYK4CyirGfh9ZKrPAPZIWPkSBR6oYZUPIemlmakC3HYRQe7qCnMIZ8rI5/VYVRsEOwSt0agOBEvVQs2b2D32m07/vme2x98bsHq1cdJwv+dOnldf+aEFxe9q/0bH13w7S99+rurTlt4RodXClu5GM5YMheaaseLW7cg3BqB3+9v0GpAYF1KiqjzNkmZh6SaJPWCYLOz6HBgYLCRMBZPoLUlhFAo1JAuCw54A0Em69RMk9HZpKWnHxqpSsml03AY2aDKEhsrUCVYWg4OkdIyDJQqOWguJweax5IliFIA7kAnDvVN4L4HH8eOgzUEvIA/5EGxmEc+b6EpCPR0RhD0KHDKwLTWEDrbm7h4NaeCkdEoNJcfTc2deGHztsbKmC1wmhkFERhVIkxHMHv2bMTjMSgqAe8moKg2mCa1VuowawZy6SySiTz0ggnJ7mIlq+Cg1FtCZlKwPJ03RXb4UO8NDgWFiglXqAkZw3Zky96D67sWnfKtO558PvG6quX/8S+9KcVF2+M/fOa6KyKy9akmtT47O9bnfffK0+BSwKOhsYkxZl05XRo8To3tWbw1MrnZ4J6U0+3ljEB/MITBIyMYHR2DKDrg1UT09PTwykUS34OHj6BQbriT/eEwGzLosE5bEitPRYEZXl6fG0GvB4JBB/8yBzzZHYQJyPNtjkBupE3XK6St96JYFTE0lsTO3j7s2d+H8TjFGQPzZsrwO2V0tTehKeCCKtkYAx5gig5QqppscyNx33gsi2c37obLLWLWnPnciE1MDrM48B3nnIsFC+ajv28/OtojcLkEZDNRBAPEyp9AdHQEk+OTqBSJuuOCxxXmhBKPx4G9e3fD74vA5Qxh584DKBZNtLb3oFSzkCjoCHd0R9dt3nJwoqR/56Xx2os2Gl28Cb/elOKi7yPZ/3L7ipmn3/5371+6OKJZXfGhPpx/9gqcesoCjIwMIDE5wXA1ClpqFJbIxVYmkywEdvBMkAF2zgLs23cQL7y4FbNnzkApF0dnWyvDz0g1OpkuwOMPNpSepo0TW5mlUG00LV1ujZ0x1FylRiTJkyUHhSPqEIQqJNFkqjLpyohfVa6QNIfUEh6m1FB+0a79B5HJ5eH3euCSBAaHkFYqEvCylt4u2Hh7LhvUtdfw8o69MGwq7nvwVXz5yx+C4ND4w+FwkAIkjcGBPmaEnbNyIS5+9zvhdjkwcvQgQkGVc42SiUkkJsYbKALJDU31QrDRdMCE2ylgdHiY9V51S+KBOWGaVHcIB4fG4G/pKGSM2oH//cxrv/6Xn37vkfd85h9P6A3xT2v2TSsuKxrVbrzxU/N2vLDuf113zWVdw/t2dLX4VMyd3oag38kdeboNlisFqKrEDVFa7smtQ7ciGmiTFMYXCOP5F15CPJHGaSuWITc5jHKphJlz5iGTr0ByeRk1Tslhg6Rk0DTGg9Nwmc44NMDOZdLM1mpvCeG8c0/jYE29lEK5nGJAGuVAkiyHEE2S6EatZmPWRDpfRqFcZnmOoqmNACq9MRXwuzV4nWqDEk36LMsB3bQjmijBsDvxy7vX4PIr34t8sYo1T63HrJ4Z2HfwMDq7Q5yetu3lXsTTwMXnduC9F70LkQBxUkvYv387jEoONrKgySpjLYmZSmjLYj7PujZN1jgLPJOh5m4TXzpiWR2Cy2vWVWffUxtf3Hjp1atv/cbPHjohM8Q/twi+acVFbyAXPRT6wIXnr+oOuz9x+qJZc9LDfS2apWPu9Ha0tEY4Pq5UyvMNkAPoLQOyQnANur4LcPuDGBiK4oknN2PlOcuxZMEC1IspvLJ1EzyBJmSKFWZNkb4r0tqN2fMXs6x4fCKGRCLFKxfpuiiIfOBIPwYOp3DRqnlYsmgGXJodxdwknIoFTbShXMjyPK5eo63bxbTCEvG7HSI8QS8XF23Z1MwkPKRTFrlNQhIYnYy5goqSIWI4VsDtv96IT1z/QYbi/uLnd2JGTzdyyTRauzqwp+8gC/cigSDS8UkcHi3hnUsC+OS1q3FkYA9koQyrXoKdbXWUHynCqovMfDBqFLpe4bNodDwFvWKHy9uMaKKAXB2Ydcqy/Q+vWbvH1dpy62Nbbt9rs513DLT+JuyJU+m4/u++3Y0P39187dXXnv7+8xd+rSOgzXQbBZ/TZiAQ9PLh3CHWUST6sVUDxQWTJNgmkYvYhOr24ZkNm/DMc6P4+89dgaaAF6qp8+jHMAXkdBNPrNuArhnzsGvvAHTThhohvBVSNZAwsMxqBbrhUfQGCepSSWDVu7qxdNFMYvShXs7AQYMSasyaJuMoiSlPoGDSbxGmiHoYptBQs9IhmvtldFGg6DmKdhFIW6UhkTOwYWsvYnkDK858F8eqTO/sRjGbQdDjwXgihmkLFmPHnj2Q7Q5Mb2/F2NBh5BI1rL5sKdyygaCPtPUNFDoVMrXtCKVu0KDcBHL5DMp6FbWaiEyxhoopwxlqQaJsjG3dt++g7Av8200//M4Lp1/8oSnRxf93f870597Ulev4G3vwJ99vvfkrN77/I5eu/Nt2yequ55NBMn5GQl44XQT8Jy4qGU5V0BJGkNpMTsfhoVFseWU/Emngk5+6Bqpgh2oV4HORKrSK0ck07v/dM7jiA1fhxZd2YmgkxqgganiSQYRuo/RDVDWRDRsEph0+Gsec2V6cddpizOiMwGEVGu4dovQZVTSHmrgVwhcCyQ7TqnH4Oo2ARFlhKTS1GKh5arHJVmKCTDxnYE//KH5573b85I5b8M2bb2XMQGdrC2Kjo5jW1oRkroAjyRx65s5nHmoiGmUEglnM44r3nIvZPc2YHDvE7DC6KFBLwyHQqmWgRHHEepkVH2TPtywV6WINhqBB9oYnjiRTBzdu33nPTx95YM15773mTbkd/sfCe0uKi97ET//xs8HbfnD72Z+49LSvhFVHt2Azm6mnw9k44QC8XrJ91VEz6RxBbYEMnlz3KsZiQM9sBy6/8gNQHTZ4hRoKqRR799IFA7f/6n5WGBw4HIM/FGGrO7mTqbhIs07DIDrfUZhUuVyAZAcq5Tynt55z+hI0hWRo9jo0hwmDza0NxDdTZsolkNtVdklwiDZUSOdOAZscskEAFTA9RnEG0T8yiU0v74EhetExfSF+98gT8PvCKJd01lo1B32YJCOrvxnlGhAfH2UcEiXs5hIFfHj1Su4FOmUDeiEJvZhpEK5Fei4CSsUK52jn9Arr60u6AdUfgaD5R57ZvG24APvdV3z2k49f9+VvvyWF9ZatXMcr/N6f3hL8zvVfm7n64mVf62wJzZNhtdfLBblWyKK9KQiPR2YU9+59u7Dm6WGcfo4PC09dirJZQ8/sOcjEomh1KyimMgiE21GsCrjzvj9gMqmjWHHAofh54Ey3SLoYsAObcONmmVMsaKhNQFFKXj1tWQfOOXMJFFFH2EdNUA2J2Di8GmnaqbtOEBRix1scYUdgEio4UifodPiXVBYKFqt1BCLtGI6m8dDv12DGglMxNknnvgzKFWJlKOSeZPZznYSRooZiqQyjlIFVyUI0iwh5gVPmTsPSedOQTY2z15Bk2ZUabeUixqKTyOZK8Dd1oGDZOTkt3NaJ4fFE9PDI5L4jk/EHrvvsl5667ttvXWG95cVFb+DxO7/v/qd/vDEyv2PGJ05dOP88Sy9M1+xGqJROoCXkgdcl45VXN0OU7bjk8ovgbwpylpBNElAt5NHqcTIeqGaTIasBbHnlANY8/Sqc7hAcRJQxSIRI3fnGeMhOMx/LZFkO4cJpe6zqFSxa0MrB5gG3jVGaNMbRC3m2ojXih2lcQL8tWDwLZwwdRMuGsq5D1tyo2xzIFQ3IrgAPv9c8/TyaO2YhkSpyyqteI3iKwjdfCiiFXUauWOEiN8s52Os5uMQ6OiMSFsxqxcyuJvjdKo4M9MOteSCrlMU9CrPugMvjx1gqD11yw+7x4cChwXGHy71n0yv77r3niYc3nHfJ6jeUfvH/crZ6W9wW/9yb6F+7Vv7aN69Xxo+OX7JgRtcnZ3W1dfa0NwV3bH3e094SwNHBg1i0eC66ptEWUoQv4IbL6+SkiGI6D0V2Ipkpw+Vrxni8hG/+82/hDYjwBMh2JaJcNZmsQ78INEeNDVJOGJUSrEoZHg2YOT2MxYt60NXqBTXu6cxFMXnEw+fCovEMRQ/XazBsZN61INhtqJfJxlXhJi/F95HSwxQUxJIFvNZ7EPv7Rnj1JDgExSA7RCdLaao1CgemG7EdVbqUFFIQagUEXMDMrhBmdUV4fEQu6aA/gGK+jOGRKBcndftLehXRdAHBmXNLSd0Y6zsy2P/CziP3bt6y5fkZZ501pS6e11tob9mZ6z97ww/fdkv45z/+t+m2Uu6zS+fPPGXR7K5A/57XWuxWiRO3yMrv9Ujw+Z0sD+ac6RrQ3NqFTK4C1RtGtgjc8oPbEY0BkTZKQ3Oyo4jAITSgtswaqlWC+lZg1Upw2oGOZo3Zp7N6mjGzpxkOoQZUi3ATZ7VCXAryVdLMk0ZJ1NRtEATptuhRNG7Skn6eWBLJTIlXqFIFmEzksfXlncgWKNyAznoyRMnJEhvKiaRyFxTyDFRQLiYh1OvoiEiYP6sTXc0BdjzxB8CwEJ2IQ7Ap8PubeFWk8VHX3EWp7UeGJnccPLyve87cO27/xc92ti477y07Y71tDvR/7tNgjYyof3zyD50//8kPV1fS8Q/M624NtofdoVoxYZ/WHsSSedNRq9F8LdVAGolO+CMd7NxxesKoWjL7+h55bCMEUYTLF2SQCB2ZyhWd54HHwxRURx0dQQ3d7QH4PCIiIQU905qYS0FIpEg4jEqhzBp/Kq7GjZOUF5QAIzSkQFWgkCuiXDGgV6oslSbRIfFQLTuFMEg4PDSGvr4hxFJkOPn3HZYsY8Uq8VbBKCXyXPKqNaMLQbfMHwAKiZ+cjMPh0HgVTmfK8AQiVKTR3v7B8e0Dw8+u/ujHH/jYp64aaF787uLrXWVOxN97W61cf/oNxrdvb/m7D156WWps7HNXXLJSkYxCu56O2psDCiLH8JKkubcrLo6Vy+R19hzC4eT43jvu/i32HcrD5SU9fYOjWq6RS7sRChoO+tkwEaSo4DD5EatQRAPhUKNDT1F4zaEIvC4/jBqZURuRfFTQDWYXocotJGJJxjPpZQq8Iv2YHRa3I1zQnAFYgoThkUkcGR5HMpVlmjVtaZTRWGlADiErgNcjoinsR3trGAEfkQkpu7vAIkCiJFJYZ55aDZZSc8iukeGRycGtvYcevOm229ZfccMNbwjpfSIK621xoP+/fWO5Q4dCl12wcnlXxP3xJbM65lvFZFs1O+HqiPigyqRsLqNr5kyWLpcqjbzBqiUxNqD/yBjWP7cZRaJMNY5MrK+n0ZLX50TIH4DHJUITKggHVKgKYLdRUJPBhEBCELmcTjgJoV2qQtdrqJl1vnVyE9VsGDzqPJbROC6GxkWa08vyF1otJbL8RxPQKwavZhQVTMEKlLmdzxdYAkSwFLpUqCTp9lOfjzr/VRRKRZTKVW7eZmnyUDTQ1NE9YRc9g8++8NJOw8S9f/O3Hz903fenzn4/1UX2tl25jn+j6Z07fZdfcn6zS6xcf/ri2SuVeqlTRsWfS0YxY1o7NKfIWi9ScVIzMVciZHgZi5Yuw/pnNmLv/v3s5qZVjmP0nCpkhXhdZAqpIkJth7AH4aALomihVsmxRY0yC4lZQdseCfDICU3FQ9EskipxQ5aSXUnBQXIh0UGKWJGFf3WaFmSLrDal8x7JoimKj/Kws7kCtx6oSMmaVtNp5FXg1FlqGpM2q1QpQydeht2OukOi1TljSa6hXfv7jmzaOXLXnFmt275y/VfzF98wtQ7p/3HFRd8wpXTc9fVfN722dcMHly2c8f6OSKClmI61u4nObFLjtQ63y4tAKMRbEd0H6aBPkDbqYJNGnn2CMgVTkcWsCq/Xi7aWZp5jEkjObiPuKunnqgxAaTCuZIyNTCIYaIZp2PHH9Vsxf/40dHa2s8LVEkxeeTj8gJBMFGpFkcm03THUV2aeBKHDSdGQLZJ1TYHL40OhpGMiOoGA6sHRoRHWm3kCftQJK1kqMlikpbu7NJkpRl/a2RvrHyo93jN/2hNXf/RzE9d+4QtT7o6e6sJ622+Lf/oNW5Zl+/iFZ/qHDx44d0ZHy0faWoIzQjLaC7FDPrdkMauBpcyCzCsU+fQ4k1HTkEwmeHUgpQWtXGykoN4VB5eTb5I45IQSIDQmhUXRHI8arxInh5FFv5irYPOWl1he3dHZxkmwNpHY9wXueZGilWG2xM3n8FGC1gt8q/MHwyxfpm01kckgmc6yqYP+bClZxPTuWShVKzDtlHkNFCj2zyHF9h05OrZtf/LAirPn/+zKa64eWv3pb0wJlO1EFNJ/9ppv+23xP77pe2+5JXjnXT/tLCXjHztr6awVM5ukVkct12ZUKXfRgkdz8XmKAsqpq+3WNMaPE4iEJA5kuKWzkkMg4K0I006pqYRvIh096bga9GZSGhCK2yE4USnXkYxlse/AQfQQ+S8S5NeQFcohIuAt8VnJBkGRB2T2pyQzklYTZcfPxZTO5Tkar0TK1yohBCS4VA80wc053r5IM/S6iZrgKOSq5tjW1/bn6qLw21v/7SdrZs89LToVjNI3q6iOf52/uOKiNz44OKhseOie1l//5MfntblrVzR55O7m5ojXrSghQ6+IlFPtVlWE/B7YqlVEgn4EPG6YNR2lYoG57iqZGig6pk6kZCougwfmNJjmJZ1yo4lEAwXFQo2ZXPF4ks9XMkEYYMHpEqE4HZy1Q/IcGunQiseMMZN6cNR0FZDKZJClXEZJZq4DfSWdk9cs2C0nh8XH0znLEwoPbt+9f2LXgfHej13/4buuuuaDRzrOvDD1ZhfFVH29v8jiOv7NH920yf/oH+7seuyR+y6JjtUve9fZM+ynzp/rik+MNpVSKU9r2A+jlIfMnXYLMg26nSqcJEQ0TJTKOnOvLJLLUOPUZrKdixn35PCxiagbDe1UIpFp/HtOqq0xvltzq3B6FF7FKDqZ/hudzOuGxc5uMsrSLZHAciQbqpKjnEaUosQZPVW+aHisimmLGXVhaO2GF8e7eqbf//Xv3Lr9VHc4ajvvzdVfTVVR/UWvXP/xIST7+z1bNzze+qNbf3h2/+DkinOXtM9cMHO6v5xJtKhC3W83ayS6gcKZ1jamJ3O8MUF33Z5jTdE6GzQMIutwmiE5o8XGLdGuIZspwO8PIpdJcUdd1WTIcgNmwv2vRqI6hDpdGqgnZmuoJDQnbA4ZummiQFu33QHRSfp8IFczYtmqMLGjd//oRLy6/mtf+4d1133mC2NvNHNnqovk9b7eX/TK9R+/6ZGREXVk10uBNX94qGPL00+/OxEtXPa+dy+tKVYt4JZEt0uykV9LLut5LjJqK+TzOQgEvSX3j9DI9zHJGc0hBQ626yuyG+lUHu3t7UjEidthwKmpqFL2otng7PN5i/J4SOLDEXkiYzg5DIoEfoRc0jTLtNuzqXw+Ox6Lp2KFYt/2gdymK6++cNOXv/TPR3uWLZsyZOTrLYip/Ht/VcX1/+vwb97s3jvY23TbLd9dVsykZshWfca0jrbmrtaIn3ZHs1YN2gVb0KiWbYRF5fm0nWJL6H/UgadOvIhKmaTWLkxOJDBt2jQk4jFSOrOBhLyTx2+pfIg36LZIrQ6S1jh0m0PUVc2dz5cresW09FypnB0ej46MTcYmXD7vjtauma9+8abvJZetWvVXVVR/Vdvif/Vps7ZvF9du2xZ88qnftRzcd3C+2ymG21o7u4I+zxyfJgUq5YJg1quC3UFt1Lq9qOu2arXmsASbZVTrtlyxaE+lUlY6nZZKZYtyhy1ZRk1yCGbA6ys5nS5IskL3AtOyO2qAUKxU69lCsTyRSGWi6YJeyJf0cU8otH/xkuUTl152bn71dV/9qyyoP/1Z/NWuXH+u4KybbhL+BTnfC2s3O1/b/arUGvC3WGY5bJiW1wZLNcy6wzRN2SHLUFS1nkymtJbWcHruvAXjy5afmpo+a0ZdcSiIxeLCZHKi/vILzzeVKxUhm847MtmsvVw3ik7FlVRd7owdzsx7L720HG5t1eH3F1afYDbDf/Uhe7P/+/+44vq/PeCbbrpJmD9/fgOLA5j/04phqovvZHFN9RM9+Xr/3xM4WVwni+GEPYGTxXXCHu3JFz5ZXCdr4IQ9gZPFdcIe7ckXPllcJ2vghD2Bk8V1wh7tyRc+WVwna+CEPYGTxXXCHu3JFz5ZXCdr4IQ9gZPFdcIe7ckXPllcJ2vghD2Bk8V1wh7tyRc+WVwna+CEPYGTxXXCHu3JFz5ZXCdr4IQ9gZPFdcIe7ckX/j9vJGxVhlgTZQAAAABJRU5ErkJggg==;" parent="8" vertex="1">
                    <mxGeometry x="268" y="137.5" width="224.46" height="220" as="geometry"/>
                </mxCell>
                <mxCell id="14" value="" style="endArrow=none;html=1;" edge="1" parent="8">
                    <mxGeometry width="50" height="50" relative="1" as="geometry">
                        <mxPoint y="90" as="sourcePoint"/>
                        <mxPoint x="759" y="90" as="targetPoint"/>
                    </mxGeometry>
                </mxCell>
            </root>
        </mxGraphModel>
    </diagram>
</mxfile>